<?xml version="1.0" encoding="utf-8"?>
<!-- Generator: Adobe Illustrator 25.2.1, SVG Export Plug-In . SVG Version: 6.00 Build 0)  -->
<svg version="1.1" id="Layer_1" xmlns="http://www.w3.org/2000/svg" xmlns:xlink="http://www.w3.org/1999/xlink" x="0px" y="0px"
	 viewBox="0 0 582.7 409.4" style="enable-background:new 0 0 582.7 409.4;" xml:space="preserve">
<style type="text/css">
	.st0{clip-path:url(#SVGID_2_);}
	.st1{fill:#A1A1A1;}
</style>
<g>
	<g>
		<defs>
			<rect id="SVGID_1_" x="-3.53" y="0" width="591.25" height="430"/>
		</defs>
		<use xlink:href="#SVGID_1_"  style="overflow:visible;fill:#CECECE;"/>
		<clipPath id="SVGID_2_">
			<use xlink:href="#SVGID_1_"  style="overflow:visible;"/>
		</clipPath>
		<g class="st0">
			<polygon class="st1" points="68.46,141.16 97.34,164.49 180.25,119.86 			"/>
			<polygon class="st1" points="629.98,194.97 629.98,171.08 621.52,161.63 629.98,148.19 629.98,104.69 485.32,101.47 386.96,8.6 
				180.25,119.86 396.19,78.71 			"/>
			<polygon class="st1" points="-54.06,449.19 251.5,449.19 278.39,444.77 286.64,449.19 600.25,449.19 629.98,401.98 
				629.98,323.79 486.24,327.71 363.52,228.61 182.84,233.53 97.34,164.49 44.58,192.89 -54.06,176.78 			"/>
			<polygon class="st1" points="-54.06,334.08 -1.71,392.52 -37.4,449.19 285.14,449.19 337.65,436.75 366.29,449.19 629.98,449.19 
				629.98,234.63 323.11,365.14 -54.06,273.06 			"/>
			<polygon class="st1" points="629.98,449.19 629.98,286.22 544.68,449.19 			"/>
			<polygon class="st1" points="515.05,308.64 565.81,228.03 414.17,342.72 582.37,383.79 			"/>
			<polygon class="st1" points="-54.06,449.19 273.39,449.19 414.17,342.72 157.41,280.04 -54.06,369.98 			"/>
			<polygon class="st1" points="629.98,241.91 627.89,242.8 548.16,223.34 536.2,246.18 501.32,253.58 629.98,250.07 			"/>
			<polygon class="st1" points="283.57,310.33 294.3,293.29 280.07,277.4 316.08,296.72 361.12,289.3 314.37,287.03 			"/>
			<polygon class="st1" points="629.98,220.88 438.36,19.7 352.75,183.25 103,236.21 601.88,258.95 629.98,287.57 			"/>
			<polygon class="st1" points="629.98,213.72 629.98,130.66 574.56,160.49 289.62,113.95 323.97,155.42 294.28,198.42 			"/>
			<polygon class="st1" points="629.98,319.01 378.65,372.31 433.56,373.53 465.01,403.23 629.98,333.07 			"/>
			<polygon class="st1" points="629.98,297.99 629.98,139.84 501.02,75.72 590.36,183.55 513.16,295.39 			"/>
			<polygon class="st1" points="629.98,267.3 603.4,245.83 565.34,318.53 454.33,342.08 629.98,313.16 			"/>
			<polygon class="st1" points="629.98,171.72 608.19,203.28 629.98,191.55 			"/>
			<polygon class="st1" points="629.98,-44.85 592.3,-84.41 629.98,-38.93 			"/>
			<polygon class="st1" points="629.98,254.59 465.25,250.92 629.98,291.13 			"/>
			<polygon class="st1" points="629.98,4.94 473.03,-154.97 629.98,34.48 			"/>
			<polygon class="st1" points="629.98,163.43 500.94,350.35 629.98,252.76 			"/>
			<polygon class="st1" points="135.21,42.36 300.75,198.66 589.67,205.1 388.65,105.14 146.78,151.23 182.26,94.89 			"/>
			<polygon class="st1" points="451.47,177.17 486.76,121.14 387.6,140.03 498.27,229.4 			"/>
			<polygon class="st1" points="-54.06,77.63 159.02,183.59 387.6,140.03 375.55,130.3 181.7,135.59 67.32,43.22 -54.06,46.53 			
				"/>
			<polygon class="st1" points="-54.06,449.19 183.78,449.19 276.05,241.63 -54.06,419.32 			"/>
			<polygon class="st1" points="313.37,198.32 471.52,206.01 487.99,193.56 			"/>
			<polygon class="st1" points="629.98,178.39 575.75,127.18 487.99,193.56 629.98,189.69 			"/>
			<polygon class="st1" points="629.98,347.32 521.9,300.36 629.98,430.82 			"/>
			<polygon class="st1" points="-54.06,354.28 429.82,365.07 0.85,295 -54.06,324.55 			"/>
			<polygon class="st1" points="629.98,381.82 629.98,375.94 418.68,420.75 435.25,427.94 			"/>
			<polygon class="st1" points="301.79,449.19 303.94,445.08 418.68,420.75 52.28,261.57 220.37,449.19 			"/>
			<polygon class="st1" points="106.67,44.77 248.89,68 362.4,6.9 318.54,76.54 376.71,141.46 278.34,48.59 			"/>
			<polygon class="st1" points="609.55,196.62 620.28,179.58 466.71,204.86 623.78,212.5 			"/>
			<polygon class="st1" points="-54.06,342.23 53.34,261 -54.06,203.41 			"/>
			<polygon class="st1" points="589.38,449.19 629.98,384.72 629.98,372.67 450.05,449.19 			"/>
			<polygon class="st1" points="466.71,204.86 148.06,189.36 53.34,261 70.33,270.12 			"/>
			<polygon class="st1" points="500.82,449.19 629.98,449.19 629.98,317.87 435.4,213.52 423.35,236.55 388.19,244 526.89,411.42 
							"/>
			<polygon class="st1" points="629.98,177.93 464.55,168.89 629.98,195.91 			"/>
			<polygon class="st1" points="629.98,308.61 629.98,205.99 405.76,169.36 463.93,234.29 420.07,303.93 			"/>
			<polygon class="st1" points="66.85,256.71 20.11,254.44 87.43,329.59 36.67,410.2 254.53,317.54 97.65,233.42 			"/>
			<polygon class="st1" points="629.98,390.85 629.98,286.79 437.39,239.77 254.53,317.54 447.3,420.92 			"/>
			<polygon class="st1" points="332.91,267.6 58.03,45.62 212.85,218.44 96.12,403.81 141.15,396.39 177.16,415.71 374.48,266.47 
							"/>
			<polygon class="st1" points="629.98,249.09 411.51,238.46 374.48,266.47 629.98,259.5 			"/>
			<polygon class="st1" points="629.98,266.99 602.51,266.38 405.79,80.63 163.92,126.72 -37.1,26.76 9.7,79 -25.59,135.03 
				408.61,123.18 629.98,301.96 			"/>
			<polygon class="st1" points="629.98,288.24 441.9,319.2 629.98,365.12 			"/>
			<polygon class="st1" points="-54.06,308.45 274.77,324.45 377.71,246.59 356.41,235.17 -54.06,302.75 			"/>
			<polygon class="st1" points="629.98,244.82 509.11,147.21 377.71,246.59 629.98,381.88 			"/>
			<polygon class="st1" points="471.95,218.1 397.64,214.49 404.8,223.13 398.61,232.08 			"/>
			<polygon class="st1" points="629.98,187.99 471.95,218.1 629.98,225.79 			"/>
			<polygon class="st1" points="629.98,202.12 490.63,199.02 629.98,205.8 			"/>
			<polygon class="st1" points="629.98,223.25 493.13,94.04 149.78,86.39 542.49,281.66 629.98,264.99 			"/>
		</g>
		<g class="st0">
			<polygon class="st1" points="168.43,295.52 190.1,310.52 252.3,281.82 			"/>
			<polygon class="st1" points="589.73,330.13 589.73,314.76 583.38,308.69 589.73,300.04 589.73,272.06 481.19,269.99 
				407.39,210.25 252.3,281.82 414.32,255.35 			"/>
			<polygon class="st1" points="-54.06,372.39 -11.71,404.41 -54.06,486.1 -54.06,493.65 305.76,493.65 325.93,490.8 332.13,493.65 
				567.42,493.65 589.73,463.28 589.73,412.99 481.88,415.51 389.81,351.76 254.25,354.93 190.1,310.52 150.51,328.79 
				-54.06,300.15 			"/>
			<polygon class="st1" points="89,493.65 331,493.65 370.4,485.65 391.88,493.65 589.73,493.65 589.73,355.64 359.49,439.58 
				24,369.37 115.78,457.19 			"/>
			<polygon class="st1" points="589.73,493.65 589.73,388.82 525.73,493.65 			"/>
			<polygon class="st1" points="503.5,403.24 541.58,351.39 427.81,425.16 554.01,451.58 			"/>
			<polygon class="st1" points="322.19,493.65 427.81,425.16 235.17,384.84 -50.57,489.02 60.32,493.65 			"/>
			<polygon class="st1" points="589.73,360.32 588.16,360.89 528.34,348.37 519.37,363.07 493.19,367.83 589.73,365.57 			"/>
			<polygon class="st1" points="329.82,404.33 337.87,393.37 327.2,383.15 354.22,395.57 388,390.8 352.93,389.34 			"/>
			<polygon class="st1" points="589.73,346.8 445.96,217.39 381.73,322.59 194.34,356.66 568.65,371.28 589.73,389.69 			"/>
			<polygon class="st1" points="589.73,342.19 589.73,288.77 548.15,307.95 334.36,278.02 360.13,304.69 337.86,332.35 			"/>
			<polygon class="st1" points="589.73,409.91 401.16,444.19 442.35,444.98 465.96,464.09 589.73,418.96 			"/>
			<polygon class="st1" points="589.73,396.39 589.73,294.67 492.97,253.42 560,322.78 502.08,394.72 			"/>
			<polygon class="st1" points="589.73,376.65 569.79,362.85 541.23,409.61 457.94,424.75 589.73,406.15 			"/>
			<polygon class="st1" points="589.73,315.17 573.38,335.47 589.73,327.93 			"/>
			<polygon class="st1" points="589.73,175.87 561.46,150.43 589.73,179.68 			"/>
			<polygon class="st1" points="589.73,368.48 466.13,366.11 589.73,391.98 			"/>
			<polygon class="st1" points="589.73,207.9 471.97,105.04 589.73,226.9 			"/>
			<polygon class="st1" points="589.73,309.84 492.91,430.07 589.73,367.3 			"/>
			<polygon class="st1" points="218.51,231.97 342.71,332.5 559.49,336.64 408.66,272.35 227.19,301.99 253.81,265.75 			"/>
			<polygon class="st1" points="253.39,291.93 167.57,232.52 32.01,235.69 236.38,322.81 482.27,282.64 455.8,318.68 490.91,352.28 
				398.83,288.53 			"/>
			<polygon class="st1" points="254.95,493.65 324.18,360.14 34.86,493.65 			"/>
			<polygon class="st1" points="352.18,332.28 470.84,337.23 483.2,329.22 			"/>
			<polygon class="st1" points="589.73,319.47 549.04,286.53 483.2,329.22 589.73,326.73 			"/>
			<polygon class="st1" points="589.73,428.12 508.64,397.92 589.73,481.83 			"/>
			<polygon class="st1" points="117.7,394.47 36.71,431.84 439.55,439.54 			"/>
			<polygon class="st1" points="-54.06,404.94 -31.16,427.37 -54.06,445.52 -54.06,473.73 36.71,431.84 15.14,431.43 -54.06,375.41 
							"/>
			<polygon class="st1" points="589.73,450.31 589.73,446.53 431.2,475.35 443.62,479.98 			"/>
			<polygon class="st1" points="343.49,493.65 345.11,491 431.2,475.35 156.29,372.96 282.41,493.65 			"/>
			<polygon class="st1" points="197.1,233.52 303.8,248.46 388.97,209.16 356.06,253.95 399.7,295.71 325.9,235.98 			"/>
			<polygon class="st1" points="-7.07,479.04 2.64,481.07 9.15,468.52 			"/>
			<polygon class="st1" points="62.73,493.65 2.64,481.07 -3.88,493.65 			"/>
			<polygon class="st1" points="574.4,331.19 582.45,320.23 467.23,336.49 585.08,341.41 			"/>
			<polygon class="st1" points="-54.06,306.96 51.53,386.79 9.15,468.52 157.08,372.6 -54.06,275.53 			"/>
			<polygon class="st1" points="559.27,493.65 589.73,452.18 589.73,444.43 454.73,493.65 			"/>
			<polygon class="st1" points="467.23,336.49 228.15,326.52 157.08,372.6 169.83,378.46 			"/>
			<polygon class="st1" points="492.82,493.65 589.73,493.65 589.73,409.18 443.74,342.06 434.7,356.87 408.32,361.67 
				512.39,469.35 			"/>
			<polygon class="st1" points="589.73,319.17 465.61,313.36 589.73,330.74 			"/>
			<polygon class="st1" points="589.73,403.22 589.73,337.22 421.5,313.66 465.14,355.42 432.24,400.21 			"/>
			<polygon class="st1" points="167.22,369.84 132.15,368.38 182.66,416.72 144.58,468.57 308.03,408.97 190.33,354.86 			"/>
			<polygon class="st1" points="589.73,456.12 589.73,389.19 445.23,358.95 308.03,408.97 452.67,475.46 			"/>
			<polygon class="st1" points="366.84,376.85 160.61,234.07 276.77,345.22 189.18,464.45 222.97,459.69 249.99,472.11 
				398.03,376.12 			"/>
			<polygon class="st1" points="589.73,364.94 425.81,358.1 398.03,376.12 589.73,371.63 			"/>
			<polygon class="st1" points="589.73,376.45 569.12,376.06 421.52,256.59 240.05,286.23 89.23,221.94 124.34,255.53 97.87,291.57 
				423.64,283.96 589.73,398.94 			"/>
			<polygon class="st1" points="589.73,390.12 448.62,410.03 589.73,439.57 			"/>
			<polygon class="st1" points="384.47,355.99 56.42,402.29 323.22,413.41 400.45,363.33 			"/>
			<polygon class="st1" points="589.73,362.19 499.04,299.41 400.45,363.33 589.73,450.35 			"/>
			<polygon class="st1" points="471.16,345.01 415.41,342.68 420.78,348.24 416.14,354 			"/>
			<polygon class="st1" points="589.73,325.64 471.16,345.01 589.73,349.95 			"/>
			<polygon class="st1" points="589.73,334.73 485.18,332.73 589.73,337.09 			"/>
			<polygon class="st1" points="589.73,348.32 487.05,265.21 229.44,260.29 524.08,385.89 589.73,375.17 			"/>
		</g>
		<g class="st0">
			<polygon class="st1" points="629.98,201.97 470.74,197.96 334.08,52.09 46.91,226.85 346.91,162.22 629.98,321.36 			"/>
			<polygon class="st1" points="-54.06,463.13 629.98,463.13 629.98,301.02 592.33,302.18 421.84,146.52 170.83,154.26 52.06,45.81 
				-21.25,90.42 -54.06,84.37 			"/>
			<polygon class="st1" points="-54.06,463.13 629.98,463.13 629.98,233.9 365.71,360.97 -54.06,245.11 			"/>
			<polygon class="st1" points="629.98,207.95 492.21,325.76 629.98,363.79 			"/>
			<polygon class="st1" points="-54.06,463.13 331.56,463.13 492.21,325.76 135.5,227.3 -54.06,318.45 			"/>
			<polygon class="st1" points="629.98,181.74 613.28,185.75 629.98,185.23 			"/>
			<polygon class="st1" points="310.78,274.88 325.68,248.12 305.92,223.17 355.94,253.5 418.51,241.86 353.57,238.29 			"/>
			<polygon class="st1" points="629.98,114.79 629.98,23.83 319.18,-33.56 366.9,31.56 325.66,99.11 			"/>
			<polygon class="st1" points="629.98,327.37 442.87,372.23 519.14,374.15 562.85,420.8 629.98,388.52 			"/>
			<polygon class="st1" points="629.98,-84 612.87,-93.62 629.98,-70.27 			"/>
			<polygon class="st1" points="629.98,305.09 548,324.75 629.98,309.49 			"/>
			<polygon class="st1" points="629.98,183.25 563.18,181.56 629.98,200 			"/>
			<polygon class="st1" points="629.98,309.55 612.76,337.75 629.98,323.02 			"/>
			<polygon class="st1" points="-54.06,463.13 183.89,463.13 300.32,166.97 -54.06,382.64 			"/>
			<polygon class="st1" points="352.17,98.95 571.89,111.03 594.77,91.47 			"/>
			<polygon class="st1" points="629.98,61.36 594.77,91.47 629.98,90.39 			"/>
			<polygon class="st1" points="-54.06,346.55 513.96,360.86 -54.06,255.96 			"/>
			<polygon class="st1" points="629.98,416.78 498.48,448.31 521.5,459.61 629.98,430.56 			"/>
			<polygon class="st1" points="436.67,463.13 498.48,448.31 -10.54,198.29 199.32,463.13 			"/>
			<polygon class="st1" points="629.98,97.17 565.2,109.23 629.98,112.79 			"/>
			<polygon class="st1" points="-54.06,235.87 -9.08,197.41 -54.06,170.14 			"/>
			<polygon class="st1" points="629.98,463.13 629.98,450.72 604.17,463.13 			"/>
			<polygon class="st1" points="565.2,109.23 122.51,84.88 -9.08,197.41 14.52,211.72 			"/>
			<polygon class="st1" points="629.98,188.47 521.71,122.83 504.97,158.99 456.12,170.7 629.98,407.96 			"/>
			<polygon class="st1" points="629.98,56.92 562.21,52.73 629.98,65.25 			"/>
			<polygon class="st1" points="629.98,268.1 629.98,81.07 480.53,53.47 561.34,155.45 500.41,264.83 			"/>
			<polygon class="st1" points="-54.06,188.59 38.29,305.13 -32.23,431.75 270.43,286.21 52.49,154.08 9.69,190.67 -54.06,187.16 
							"/>
			<polygon class="st1" points="629.98,193.19 524.47,164.06 270.43,286.21 538.24,448.58 629.98,431.51 			"/>
			<polygon class="st1" points="629.98,169.78 488.51,162 437.07,205.99 629.98,200.04 			"/>
			<polygon class="st1" points="629.98,270.34 530.74,288.81 629.98,316.21 			"/>
			<polygon class="st1" points="-54.06,277.67 298.55,297.06 441.56,174.77 411.97,156.84 -54.06,243.57 			"/>
			<polygon class="st1" points="629.98,24.03 624.11,18.67 441.56,174.77 629.98,289.01 			"/>
			<polygon class="st1" points="572.48,130.03 469.26,124.35 479.19,137.91 470.6,151.98 			"/>
			<polygon class="st1" points="629.98,117.64 572.48,130.03 629.98,133.19 			"/>
			<polygon class="st1" points="629.98,100.84 598.44,100.05 629.98,101.78 			"/>
			<polygon class="st1" points="629.98,58.48 572.94,-2.41 95.94,-14.43 629.98,285.8 			"/>
		</g>
	</g>
</g>
</svg>
