<?xml version="1.0" encoding="utf-8"?>
<!-- Generator: Adobe Illustrator 21.0.0, SVG Export Plug-In . SVG Version: 6.00 Build 0)  -->
<svg version="1.1" id="Facebook" xmlns="http://www.w3.org/2000/svg" xmlns:xlink="http://www.w3.org/1999/xlink" x="0px" y="0px"
	 viewBox="0 0 48.4 48.4" style="enable-background:new 0 0 48.4 48.4;" xml:space="preserve">
<style type="text/css">
	.st0{fill:#E0FAF1;}
	.st1{fill:#1AB394;}
</style>
<circle class="st0" cx="24.2" cy="24.2" r="24.2"/>
<path class="st1" d="M5.6,17.9c3.5,2.2,6.7,4.6,9.8,7.1c1.5,1.3,3.1,2.5,4.6,3.9c1.5,1.3,3,2.6,4.4,4l-5.7,0.3
	c2-3.1,4.1-6.2,6.3-9.2c2.2-3,4.5-5.9,7-8.6c2.4-2.8,5-5.5,7.7-8.1c2.7-2.6,5.6-5.1,8.8-7.2c-1.2,3.7-2.9,7.1-4.6,10.4
	c-1.7,3.3-3.7,6.5-5.7,9.6c-2,3.1-4.2,6.1-6.4,9c-2.2,2.9-4.6,5.8-7.1,8.5L24.2,38c-1.3,1.4-3.5,1.5-4.9,0.3
	c-0.1-0.1-0.3-0.3-0.4-0.4c-1.2-1.5-2.4-3.1-3.6-4.7c-1.2-1.6-2.3-3.2-3.4-4.9C9.6,25,7.4,21.6,5.6,17.9z"/>
</svg>
